<svg width="22" height="22" viewBox="0 0 22 22" fill="none" xmlns="http://www.w3.org/2000/svg">
<path d="M9.16666 2.93336C5.19751 3.8535 2.49448 7.5334 2.80357 11.5961C3.11266 15.6587 6.34128 18.8874 10.404 19.1965C14.4666 19.5055 18.1465 16.8025 19.0667 12.8334C19.0667 12.3271 18.6563 11.9167 18.15 11.9167H11.9167C10.9041 11.9167 10.0833 11.0959 10.0833 10.0834V3.66669C10.0603 3.44733 9.95044 3.24631 9.7782 3.10852C9.60597 2.97073 9.38573 2.90765 9.16666 2.93336" stroke="#4B465C" stroke-width="1.5" stroke-linecap="round" stroke-linejoin="round"/>
<path d="M9.16666 2.93336C5.19751 3.8535 2.49448 7.5334 2.80357 11.5961C3.11266 15.6587 6.34128 18.8874 10.404 19.1965C14.4666 19.5055 18.1465 16.8025 19.0667 12.8334C19.0667 12.3271 18.6563 11.9167 18.15 11.9167H11.9167C10.9041 11.9167 10.0833 11.0959 10.0833 10.0834V3.66669C10.0603 3.44733 9.95044 3.24631 9.7782 3.10852C9.60597 2.97073 9.38573 2.90765 9.16666 2.93336" stroke="white" stroke-opacity="0.2" stroke-width="1.5" stroke-linecap="round" stroke-linejoin="round"/>
<path d="M13.75 3.20825C16.1075 4.03835 17.9616 5.89243 18.7917 8.24992H14.6667C14.1604 8.24992 13.75 7.83951 13.75 7.33325V3.20825" stroke="#4B465C" stroke-width="1.5" stroke-linecap="round" stroke-linejoin="round"/>
<path d="M13.75 3.20825C16.1075 4.03835 17.9616 5.89243 18.7917 8.24992H14.6667C14.1604 8.24992 13.75 7.83951 13.75 7.33325V3.20825" stroke="white" stroke-opacity="0.2" stroke-width="1.5" stroke-linecap="round" stroke-linejoin="round"/>
</svg>
