<svg width="22" height="22" viewBox="0 0 22 22" fill="none" xmlns="http://www.w3.org/2000/svg">
<circle cx="11" cy="11" r="8.25" stroke="#4B465C" stroke-width="1.5" stroke-linecap="round" stroke-linejoin="round"/>
<circle cx="11" cy="11" r="8.25" stroke="white" stroke-opacity="0.2" stroke-width="1.5" stroke-linecap="round" stroke-linejoin="round"/>
<path d="M11 15.5834V15.5926" stroke="#4B465C" stroke-width="1.5" stroke-linecap="round" stroke-linejoin="round"/>
<path d="M11 15.5834V15.5926" stroke="white" stroke-opacity="0.2" stroke-width="1.5" stroke-linecap="round" stroke-linejoin="round"/>
<path d="M11 12.375C10.9653 11.7637 11.339 11.2031 11.9167 11C12.8615 10.6387 13.4753 9.72031 13.4478 8.70915C13.4204 7.69799 12.7576 6.81431 11.7946 6.50482C10.8315 6.19533 9.77806 6.52745 9.16666 7.3333" stroke="#4B465C" stroke-width="1.5" stroke-linecap="round" stroke-linejoin="round"/>
<path d="M11 12.375C10.9653 11.7637 11.339 11.2031 11.9167 11C12.8615 10.6387 13.4753 9.72031 13.4478 8.70915C13.4204 7.69799 12.7576 6.81431 11.7946 6.50482C10.8315 6.19533 9.77806 6.52745 9.16666 7.3333" stroke="white" stroke-opacity="0.2" stroke-width="1.5" stroke-linecap="round" stroke-linejoin="round"/>
</svg>
