<svg width="22" height="22" viewBox="0 0 22 22" fill="none" xmlns="http://www.w3.org/2000/svg">
<path d="M17.4167 2.75H18.1667C18.1667 2.44987 17.9878 2.17864 17.7119 2.06052C17.436 1.94241 17.1162 2.00015 16.899 2.20731L17.4167 2.75ZM17.4167 13.75V14.5C17.8309 14.5 18.1667 14.1642 18.1667 13.75H17.4167ZM12.8334 13.75L12.0834 13.7547C12.086 14.1671 12.421 14.5 12.8334 14.5V13.75ZM18.1667 13.75C18.1667 13.3358 17.8309 13 17.4167 13C17.0025 13 16.6667 13.3358 16.6667 13.75H18.1667ZM17.4167 19.25V20C17.8309 20 18.1667 19.6642 18.1667 19.25H17.4167ZM16.5 19.25H15.75C15.75 19.6642 16.0858 20 16.5 20V19.25ZM17.25 16.5C17.25 16.0858 16.9142 15.75 16.5 15.75C16.0858 15.75 15.75 16.0858 15.75 16.5H17.25ZM8.08334 3.66667C8.08334 3.25245 7.74756 2.91667 7.33334 2.91667C6.91913 2.91667 6.58334 3.25245 6.58334 3.66667H8.08334ZM6.58334 19.25C6.58334 19.6642 6.91913 20 7.33334 20C7.74756 20 8.08334 19.6642 8.08334 19.25H6.58334ZM5.33334 3.66667C5.33334 3.25245 4.99756 2.91667 4.58334 2.91667C4.16913 2.91667 3.83334 3.25245 3.83334 3.66667H5.33334ZM10.8333 3.66667C10.8333 3.25245 10.4976 2.91667 10.0833 2.91667C9.66913 2.91667 9.33334 3.25245 9.33334 3.66667H10.8333ZM16.6667 2.75V13.75H18.1667V2.75H16.6667ZM17.4167 13H12.8334V14.5H17.4167V13ZM13.5834 13.7453C13.5729 12.0685 13.6182 10.4769 14.1736 8.7996C14.7254 7.13322 15.8005 5.32821 17.9344 3.29269L16.899 2.20731C14.6183 4.38296 13.3911 6.39082 12.7497 8.32809C12.1118 10.2544 12.0728 12.0573 12.0834 13.7547L13.5834 13.7453ZM16.6667 13.75V19.25H18.1667V13.75H16.6667ZM17.4167 18.5H16.5V20H17.4167V18.5ZM17.25 19.25V16.5H15.75V19.25H17.25ZM6.58334 3.66667V19.25H8.08334V3.66667H6.58334ZM3.83334 3.66667V6.41667H5.33334V3.66667H3.83334ZM3.83334 6.41667C3.83334 8.34966 5.40035 9.91667 7.33334 9.91667V8.41667C6.22877 8.41667 5.33334 7.52124 5.33334 6.41667H3.83334ZM7.33334 9.91667C9.26634 9.91667 10.8333 8.34966 10.8333 6.41667H9.33334C9.33334 7.52124 8.43791 8.41667 7.33334 8.41667V9.91667ZM10.8333 6.41667V3.66667H9.33334V6.41667H10.8333Z" fill="#4B465C"/>
<path d="M17.4167 2.75H18.1667C18.1667 2.44987 17.9878 2.17864 17.7119 2.06052C17.436 1.94241 17.1162 2.00015 16.899 2.20731L17.4167 2.75ZM17.4167 13.75V14.5C17.8309 14.5 18.1667 14.1642 18.1667 13.75H17.4167ZM12.8334 13.75L12.0834 13.7547C12.086 14.1671 12.421 14.5 12.8334 14.5V13.75ZM18.1667 13.75C18.1667 13.3358 17.8309 13 17.4167 13C17.0025 13 16.6667 13.3358 16.6667 13.75H18.1667ZM17.4167 19.25V20C17.8309 20 18.1667 19.6642 18.1667 19.25H17.4167ZM16.5 19.25H15.75C15.75 19.6642 16.0858 20 16.5 20V19.25ZM17.25 16.5C17.25 16.0858 16.9142 15.75 16.5 15.75C16.0858 15.75 15.75 16.0858 15.75 16.5H17.25ZM8.08334 3.66667C8.08334 3.25245 7.74756 2.91667 7.33334 2.91667C6.91913 2.91667 6.58334 3.25245 6.58334 3.66667H8.08334ZM6.58334 19.25C6.58334 19.6642 6.91913 20 7.33334 20C7.74756 20 8.08334 19.6642 8.08334 19.25H6.58334ZM5.33334 3.66667C5.33334 3.25245 4.99756 2.91667 4.58334 2.91667C4.16913 2.91667 3.83334 3.25245 3.83334 3.66667H5.33334ZM10.8333 3.66667C10.8333 3.25245 10.4976 2.91667 10.0833 2.91667C9.66913 2.91667 9.33334 3.25245 9.33334 3.66667H10.8333ZM16.6667 2.75V13.75H18.1667V2.75H16.6667ZM17.4167 13H12.8334V14.5H17.4167V13ZM13.5834 13.7453C13.5729 12.0685 13.6182 10.4769 14.1736 8.7996C14.7254 7.13322 15.8005 5.32821 17.9344 3.29269L16.899 2.20731C14.6183 4.38296 13.3911 6.39082 12.7497 8.32809C12.1118 10.2544 12.0728 12.0573 12.0834 13.7547L13.5834 13.7453ZM16.6667 13.75V19.25H18.1667V13.75H16.6667ZM17.4167 18.5H16.5V20H17.4167V18.5ZM17.25 19.25V16.5H15.75V19.25H17.25ZM6.58334 3.66667V19.25H8.08334V3.66667H6.58334ZM3.83334 3.66667V6.41667H5.33334V3.66667H3.83334ZM3.83334 6.41667C3.83334 8.34966 5.40035 9.91667 7.33334 9.91667V8.41667C6.22877 8.41667 5.33334 7.52124 5.33334 6.41667H3.83334ZM7.33334 9.91667C9.26634 9.91667 10.8333 8.34966 10.8333 6.41667H9.33334C9.33334 7.52124 8.43791 8.41667 7.33334 8.41667V9.91667ZM10.8333 6.41667V3.66667H9.33334V6.41667H10.8333Z" fill="white" fill-opacity="0.2"/>
</svg>
